<?xml version="1.0" standalone="no"?>
<!DOCTYPE svg PUBLIC "-//W3C//DTD SVG 20010904//EN"
 "http://www.w3.org/TR/2001/REC-SVG-20010904/DTD/svg10.dtd">
<svg version="1.0" xmlns="http://www.w3.org/2000/svg"
 width="50.000000pt" height="50.000000pt" viewBox="0 0 50.000000 50.000000"
 preserveAspectRatio="xMidYMid meet">

<g transform="translate(0.000000,50.000000) scale(0.100000,-0.100000)"
fill="#000000" stroke="none">
<path d="M185 466 c-97 -43 -119 -149 -58 -270 31 -62 111 -176 123 -176 12 0
92 113 126 180 21 42 28 69 28 117 1 66 -14 97 -66 136 -33 25 -113 32 -153
13z m133 -26 c41 -25 72 -76 72 -117 0 -18 -8 -55 -19 -82 -20 -54 -107 -191
-121 -191 -14 0 -101 137 -121 191 -24 63 -24 106 1 147 42 68 124 91 188 52z"/>
<path d="M208 357 c-23 -13 -36 -27 -33 -35 3 -8 5 -29 5 -48 l0 -34 70 0 70
0 0 34 c0 19 2 40 5 48 3 8 -11 22 -34 36 -22 12 -41 22 -43 22 -2 -1 -20 -11
-40 -23z m67 -13 c29 -19 37 -84 10 -84 -9 0 -15 9 -15 25 0 18 -5 25 -20 25
-15 0 -20 -7 -20 -25 0 -16 -6 -25 -15 -25 -25 0 -19 64 8 83 28 20 23 20 52
1z"/>
</g>
</svg>
