<?xml version="1.0" standalone="no"?>
<!DOCTYPE svg PUBLIC "-//W3C//DTD SVG 20010904//EN"
 "http://www.w3.org/TR/2001/REC-SVG-20010904/DTD/svg10.dtd">
<svg version="1.0" xmlns="http://www.w3.org/2000/svg"
 width="700.000000pt" height="700.000000pt" viewBox="0 0 700.000000 700.000000"
 preserveAspectRatio="xMidYMid meet">

<g transform="translate(0.000000,700.000000) scale(0.100000,-0.100000)"
fill="#000000" stroke="none">
<path d="M5148 6213 c-18 -16 -361 -309 -763 -653 -1264 -1083 -1188 -1020
-1235 -1020 -56 0 -1617 -296 -1657 -314 -42 -20 -80 -71 -92 -126 -14 -60
-14 -1199 0 -1259 12 -55 41 -97 81 -117 17 -9 503 -168 1080 -354 l1048 -338
931 94 c1007 102 976 97 1032 164 15 17 31 47 37 68 6 24 10 261 10 656 0 608
0 621 -21 663 -11 23 -33 52 -48 63 -22 15 -1133 427 -1435 532 l-59 21 61 58
c98 93 94 124 -23 229 -40 36 -73 68 -74 71 -1 4 277 244 617 534 339 291 643
553 675 584 134 128 147 255 40 381 -43 52 -102 90 -139 90 -21 0 -44 -10 -66
-27z m128 -105 c25 -23 52 -54 60 -69 22 -43 18 -106 -11 -155 -25 -43 -255
-244 -995 -873 -190 -161 -355 -304 -367 -318 -15 -15 -23 -37 -23 -59 0 -36
-2 -34 134 -156 l39 -35 -374 -321 -374 -322 -186 0 c-251 0 -239 9 -239 -185
l0 -143 -140 -132 c-157 -147 -198 -171 -332 -197 -147 -28 -378 -7 -547 50
-36 12 -69 30 -75 39 -15 24 27 79 125 163 45 39 137 117 203 174 67 58 427
363 801 680 374 316 918 778 1210 1025 942 802 1030 876 1038 876 4 0 28 -19
53 -42z m-2197 -1662 c-94 -86 -585 -486 -593 -483 -6 2 -172 56 -368 118
-196 63 -354 117 -350 120 4 3 232 47 507 99 275 51 563 106 640 121 143 27
171 32 164 25z m1395 -387 c259 -93 542 -196 629 -227 105 -38 151 -59 140
-64 -10 -3 -292 -34 -628 -68 -335 -34 -628 -66 -650 -71 -116 -29 -218 -96
-285 -188 l-44 -61 -35 66 c-61 116 -168 205 -301 250 l-55 19 300 5 300 5 3
26 c2 14 -3 31 -11 37 -8 7 -74 12 -181 14 l-168 3 249 212 c136 117 252 212
257 212 5 1 221 -76 480 -170z m-2468 -24 c230 -74 418 -136 420 -138 2 -1
-18 -20 -44 -41 -80 -64 -463 -398 -529 -460 -106 -99 -118 -182 -35 -239 88
-61 379 -114 555 -103 109 8 224 34 287 66 22 11 94 70 158 130 l117 110 3
-163 c2 -138 5 -164 19 -174 22 -17 28 -16 47 3 14 13 16 59 16 349 l0 334
158 -53 c86 -29 172 -61 190 -70 81 -42 160 -137 193 -233 18 -53 19 -88 19
-646 0 -467 -3 -588 -12 -584 -7 2 -209 68 -448 145 -1648 533 -1583 511
-1612 542 l-28 30 0 628 c0 564 2 630 16 651 14 20 64 49 86 51 4 0 195 -61
424 -135z m3478 -345 c14 -5 35 -24 46 -42 20 -32 20 -47 18 -655 -3 -613 -3
-622 -24 -650 -11 -15 -32 -33 -45 -40 -13 -6 -409 -50 -879 -97 -470 -47
-874 -88 -897 -91 l-43 -6 0 535 c0 573 2 600 51 697 53 106 175 198 283 214
76 12 1371 143 1418 144 26 0 58 -3 72 -9z"/>
</g>
</svg>
